<svg xmlns="http://www.w3.org/2000/svg" version="1.1" xmlns:xlink="http://www.w3.org/1999/xlink" xmlns:svgjs="http://svgjs.dev/svgjs" width="1500" height="1500" viewBox="0 0 1500 1500"><rect width="1500" height="1500" fill="#ffffff"></rect><g transform="matrix(0.6666666666666666,0,0,0.6666666666666666,249.50000000000006,249.50000904919847)"><svg viewBox="0 0 280 280" data-background-color="#ffffff" preserveAspectRatio="xMidYMid meet" height="1500" width="1500" xmlns="http://www.w3.org/2000/svg" xmlns:xlink="http://www.w3.org/1999/xlink"><g id="tight-bounds" transform="matrix(1,0,0,1,0.13999999999998636,0.139997466224429)"><svg viewBox="0 0 279.72 279.72" height="279.72" width="279.72"><g><svg viewBox="0 0 279.72 279.72" height="279.72" width="279.72"><g><svg viewBox="0 0 279.72 279.72" height="279.72" width="279.72"><g id="textblocktransform"><svg viewBox="0 0 279.72 279.72" height="279.72" width="279.72" id="textblock"><g><svg viewBox="0 0 279.72 279.72" height="279.72" width="279.72"><g transform="matrix(1,0,0,1,57.446704652707865,57.446704652707865)"><svg viewBox="0 0 164.8265906945843 164.8265906945843" height="164.8265906945843" width="164.8265906945843"><g id="icon-0"><circle r="82" cx="82.41329534729215" cy="82.41329534729215" fill="#ffc604" data-fill-palette-color="accent"></circle><svg xmlns="http://www.w3.org/2000/svg" xmlns:xlink="http://www.w3.org/1999/xlink" version="1.1" x="24.723988604187646" y="24.72398860418764" viewBox="-241.50000000000003 374.5 73.70918830920371 47.80000000000007" enable-background="new -255 347 100 100" xml:space="preserve" height="115.378613486209" width="115.378613486209" class="icon-xg-0" data-fill-palette-color="quaternary" id="xg-0"><g fill="#ffffff" data-fill-palette-color="quaternary"><g fill="#ffffff" data-fill-palette-color="quaternary"><path fill-rule="evenodd" clip-rule="evenodd" d="M-168.5 401.8c-0.8-0.9-3-1.1-4.8-0.9-0.9 0.1-13.9 3.8-13.9 3.8 0.4 1.1 1 3.2-1.2 5.3-1.5 1.3-3.8 1.6-6.8 1.6-3-0.1-6.3-0.5-8.8-0.8-0.8-0.1-3.1-0.4-3.1-0.4s1.6-0.7 3.7-0.8c2.7-0.1 4.8-0.1 6 0 1.3 0.1 3.3 0.2 4.1 0.3 3.7 0.1 4.5-2.1 4.6-3 0-2.6-1.4-3.4-6.1-3.8-3-0.2-6.2-0.4-8.4-0.7-4.3-0.5-7.4-1.7-9-1.8-1.1-0.1-3.9-0.6-6.6 1.5-8.1 6.5-22.7 10.5-22.7 10.5 2.2 7.1 14.4 9.7 14.4 9.7 5.2-4.5 10.9-5.1 15.8-5.3 0.8 0 9.1 0 16.7 0.9 1.5 0.1 2.8-0.7 2.8-0.7 11.4-7 21.1-10.9 21.1-10.9 2.3-0.8 3-1.8 2.9-2.6C-167.7 402.3-168.5 401.8-168.5 401.8zM-195.9 393.3c0-0.3-0.1-0.6-0.3-0.8-0.2-0.2-0.5-0.3-0.9-0.5v2.6c0.4-0.1 0.7-0.2 0.9-0.5C-196 393.9-195.9 393.6-195.9 393.3zM-197.9 388c-0.3 0.1-0.6 0.2-0.8 0.4-0.2 0.2-0.3 0.4-0.3 0.7 0 0.3 0.1 0.5 0.3 0.7 0.2 0.2 0.4 0.3 0.8 0.4V388zM-197.5 399.5c4.4 0 8-3.6 8-8s-3.6-8-8-8c-4.4 0-8 3.6-8 8C-205.5 395.9-201.9 399.5-197.5 399.5zM-200.4 392.8c0.1-0.2 0.3-0.2 0.6-0.2 0.2 0 0.3 0 0.4 0.1 0.1 0.1 0.2 0.2 0.3 0.3 0.1 0.3 0.2 0.6 0.3 0.7 0.1 0.2 0.2 0.3 0.4 0.5 0.2 0.1 0.4 0.3 0.6 0.3v-2.8c-0.5-0.1-1-0.3-1.3-0.5-0.4-0.2-0.6-0.4-0.9-0.8-0.2-0.3-0.3-0.8-0.3-1.3 0-0.7 0.2-1.2 0.6-1.7 0.4-0.4 1.1-0.7 1.9-0.8v-0.6c0-0.3 0.1-0.5 0.4-0.5 0.3 0 0.4 0.2 0.4 0.5v0.6c0.4 0 0.8 0.1 1.1 0.3 0.3 0.1 0.6 0.3 0.8 0.6 0.2 0.2 0.3 0.4 0.4 0.6 0.1 0.2 0.1 0.4 0.1 0.6 0 0.2-0.1 0.4-0.2 0.5-0.1 0.1-0.3 0.2-0.5 0.2-0.4 0-0.6-0.2-0.8-0.6-0.1-0.5-0.4-0.8-0.9-1v2.5c0.5 0.1 0.9 0.3 1.2 0.4 0.3 0.1 0.5 0.3 0.8 0.5 0.2 0.2 0.4 0.5 0.6 0.8 0.1 0.3 0.2 0.6 0.2 1 0 0.5-0.1 0.9-0.3 1.3-0.2 0.4-0.5 0.7-0.9 1-0.4 0.2-0.9 0.4-1.5 0.4v0.6c0 0.2 0 0.4-0.1 0.5 0 0.1-0.1 0.2-0.3 0.2-0.1 0-0.2 0-0.3-0.1-0.1-0.1-0.1-0.2-0.1-0.4v-0.8c-0.5-0.1-0.9-0.2-1.2-0.3-0.3-0.2-0.6-0.4-0.9-0.6-0.2-0.2-0.4-0.5-0.5-0.8-0.1-0.3-0.2-0.5-0.2-0.8C-200.6 393.1-200.5 392.9-200.4 392.8zM-179.9 384.3c0-0.3-0.1-0.6-0.3-0.8-0.2-0.2-0.5-0.3-0.9-0.5v2.6c0.4-0.1 0.7-0.2 0.9-0.5C-180 384.9-179.9 384.6-179.9 384.3zM-181.9 379c-0.3 0.1-0.6 0.2-0.8 0.4-0.2 0.2-0.3 0.4-0.3 0.7 0 0.3 0.1 0.5 0.3 0.7 0.2 0.2 0.4 0.3 0.8 0.4V379zM-181.5 390.5c4.4 0 8-3.6 8-8s-3.6-8-8-8c-4.4 0-8 3.6-8 8C-189.5 386.9-185.9 390.5-181.5 390.5zM-184.4 383.8c0.1-0.2 0.3-0.2 0.6-0.2 0.2 0 0.3 0 0.4 0.1 0.1 0.1 0.2 0.2 0.3 0.3 0.1 0.3 0.2 0.6 0.3 0.7 0.1 0.2 0.2 0.3 0.4 0.5 0.2 0.1 0.4 0.3 0.6 0.3v-2.8c-0.5-0.1-1-0.3-1.3-0.5-0.4-0.2-0.6-0.4-0.9-0.8-0.2-0.3-0.3-0.8-0.3-1.3 0-0.7 0.2-1.2 0.6-1.7 0.4-0.4 1.1-0.7 1.9-0.8v-0.6c0-0.3 0.1-0.5 0.4-0.5 0.3 0 0.4 0.2 0.4 0.5v0.6c0.4 0 0.8 0.1 1.1 0.3 0.3 0.1 0.6 0.3 0.8 0.6 0.2 0.2 0.3 0.4 0.4 0.6 0.1 0.2 0.1 0.4 0.1 0.6 0 0.2-0.1 0.4-0.2 0.5-0.1 0.1-0.3 0.2-0.5 0.2-0.4 0-0.6-0.2-0.8-0.6-0.1-0.5-0.4-0.8-0.9-1v2.5c0.5 0.1 0.9 0.3 1.2 0.4 0.3 0.1 0.5 0.3 0.8 0.5 0.2 0.2 0.4 0.5 0.6 0.8 0.1 0.3 0.2 0.6 0.2 1 0 0.5-0.1 0.9-0.3 1.3-0.2 0.4-0.5 0.7-0.9 1-0.4 0.2-0.9 0.4-1.5 0.4v0.6c0 0.2 0 0.4-0.1 0.5 0 0.1-0.1 0.2-0.3 0.2-0.1 0-0.2 0-0.3-0.1-0.1-0.1-0.1-0.2-0.1-0.4v-0.8c-0.5-0.1-0.9-0.2-1.2-0.3-0.3-0.2-0.6-0.4-0.9-0.6-0.2-0.2-0.4-0.5-0.5-0.8-0.1-0.3-0.2-0.5-0.2-0.8C-184.6 384.1-184.5 383.9-184.4 383.8z" fill="#ffffff" data-fill-palette-color="quaternary"></path></g></g></svg></g></svg></g><g id="text-0"><path d="M18.517 106.502l1.414-4.617 2.375 0.727-1.207 3.942c-0.226 0.737-0.417 1.313-0.574 1.727-0.157 0.415-0.427 0.907-0.811 1.477-0.377 0.571-0.822 1.014-1.336 1.326v0c-0.812 0.483-1.675 0.692-2.589 0.629-0.914-0.063-1.947-0.272-3.101-0.625v0l-12.458-3.817 0.778-2.539 12.407 3.801c1.044 0.32 1.899 0.455 2.564 0.405v0c1.236-0.136 2.082-0.948 2.538-2.436z" fill="#3d3839" data-fill-palette-color="primary"></path><path d="M13.474 93.594v0c-0.722-1.761-0.68-3.544 0.126-5.349v0c0.39-0.873 0.925-1.616 1.604-2.227 0.676-0.621 1.435-1.087 2.278-1.398 0.836-0.314 1.718-0.46 2.646-0.437 0.928 0.023 1.838 0.235 2.731 0.634v0c0.893 0.399 1.659 0.933 2.298 1.601 0.642 0.662 1.127 1.406 1.454 2.232 0.333 0.829 0.493 1.706 0.479 2.63-0.011 0.917-0.216 1.823-0.615 2.715v0c-0.408 0.912-0.948 1.676-1.621 2.29-0.673 0.614-1.429 1.074-2.269 1.379-0.833 0.308-1.712 0.447-2.637 0.417-0.922-0.036-1.829-0.254-2.722-0.653v0c-1.818-0.812-3.069-2.09-3.752-3.834zM15.77 89.214v0c-0.539 1.206-0.577 2.35-0.114 3.432 0.465 1.076 1.334 1.897 2.605 2.465 1.271 0.568 2.462 0.666 3.574 0.294 1.115-0.378 1.941-1.169 2.479-2.375v0c0.544-1.219 0.579-2.364 0.104-3.436-0.478-1.081-1.343-1.902-2.594-2.46-1.251-0.559-2.439-0.656-3.564-0.291-1.115 0.362-1.945 1.152-2.49 2.371z" fill="#3d3839" data-fill-palette-color="primary"></path><path d="M27.986 73.896v0l2.172 1.313c-0.834 0.33-1.518 0.938-2.054 1.823v0c-0.454 0.751-0.659 1.428-0.615 2.031 0.042 0.593 0.338 1.055 0.887 1.388v0c1.063 0.643 2.071 0.176 3.024-1.4v0l1.923-3.179-4.608-2.787c-1.948-1.178-3.495-0.821-4.641 1.072v0l-2.338 3.867-2.025-1.225 2.411-3.985c0.942-1.557 2.051-2.522 3.326-2.893 1.282-0.368 2.646-0.114 4.094 0.761v0l7.091 4.289-3.253 5.378c-0.827 1.368-1.79 2.271-2.888 2.707-1.095 0.431-2.228 0.291-3.401-0.418-1.179-0.713-1.817-1.679-1.914-2.896-0.094-1.224 0.247-2.478 1.023-3.761v0c0.44-0.727 1.035-1.422 1.786-2.085z" fill="#3d3839" data-fill-palette-color="primary"></path><path d="M39.03 71.8l-10.697-8.29 2.99-3.859c1.277-1.647 2.438-2.639 3.485-2.975v0c0.923-0.305 1.752-0.309 2.486-0.01 0.729 0.294 1.585 0.822 2.567 1.582v0l6.042 4.683-1.515 1.955-6.017-4.663c-0.271-0.21-0.503-0.376-0.697-0.499-0.199-0.127-0.478-0.262-0.837-0.405-0.358-0.133-0.693-0.189-1.006-0.171-0.313 0.019-0.66 0.129-1.042 0.331-0.386 0.207-0.752 0.533-1.097 0.978v0l-1.967 2.539 8.826 6.841z" fill="#3d3839" data-fill-palette-color="primary"></path><path d="M60.949 45.112l1.657 1.85-8.356 7.489-10.032-11.195c-0.929-1.037-1.345-2.164-1.248-3.382v0c0.07-0.82 0.33-1.546 0.779-2.179 0.444-0.628 1.072-1.306 1.886-2.035v0l3.795-3.401 1.658 1.85-4.075 3.651c-1.536 1.377-1.728 2.708-0.575 3.995v0l2.151 2.4 4.848-4.345 1.651 1.842-4.848 4.345 4.33 4.832z" fill="#3d3839" data-fill-palette-color="primary"></path><path d="M62.539 40.411v0l-8.516-11.6 2.046-1.502 8.515 11.6c0.397 0.541 0.786 0.937 1.166 1.19 0.382 0.242 0.76 0.336 1.136 0.282 0.382-0.059 0.716-0.158 1.003-0.299 0.293-0.144 0.652-0.372 1.078-0.684v0l1.4 1.907c-1.697 1.246-3.139 1.804-4.323 1.673-1.183-0.141-2.352-0.996-3.505-2.567z" fill="#3d3839" data-fill-palette-color="primary"></path><path d="M68.625 26.379l7.293 11.401-2.084 1.332-6.018-9.407-1.948 1.247-0.328-2.599zM64.919 25.394v0c-0.374-0.134-0.662-0.36-0.866-0.678-0.204-0.319-0.286-0.673-0.248-1.062 0.035-0.395 0.266-0.73 0.693-1.003 0.433-0.277 0.836-0.349 1.21-0.215 0.37 0.128 0.657 0.351 0.861 0.67 0.204 0.319 0.286 0.673 0.247 1.062-0.035 0.395-0.269 0.731-0.702 1.009-0.427 0.273-0.825 0.346-1.195 0.218z" fill="#3d3839" data-fill-palette-color="primary"></path><path d="M85.557 32.668v0c-1.641 0.835-3.329 0.997-5.063 0.486-1.734-0.511-3.039-1.629-3.916-3.354v0c-0.887-1.743-1.043-3.506-0.468-5.288 0.585-1.779 1.748-3.112 3.492-3.998v0l5.907-3.005 5.957 11.709c0.385 0.757 0.631 1.485 0.738 2.183 0.117 0.701 0.107 1.351-0.03 1.949-0.136 0.598-0.288 1.087-0.454 1.469-0.167 0.381-0.387 0.798-0.662 1.249v0c-0.771 1.065-1.902 1.976-3.39 2.734v0l-2.815 1.432-1.073-2.109 2.586-1.316c1.476-0.751 2.432-1.469 2.868-2.155v0c0.815-1.216 0.847-2.561 0.096-4.037v0l-5.01-9.849-3.645 1.855c-1.19 0.605-1.95 1.456-2.281 2.553-0.324 1.094-0.176 2.252 0.446 3.474v0c0.596 1.171 1.429 1.912 2.5 2.223 1.078 0.309 2.126 0.204 3.144-0.314v0c1.107-0.563 1.927-1.361 2.459-2.392v0l1.15 2.262c-0.648 0.962-1.493 1.709-2.536 2.239z" fill="#3d3839" data-fill-palette-color="primary"></path><path d="M94.243 14.069l4.871 12.626-2.308 0.89-4.019-10.419-2.158 0.833 0.197-2.612zM90.808 12.364v0c-0.339-0.206-0.577-0.485-0.714-0.838-0.136-0.353-0.146-0.716-0.03-1.09 0.113-0.38 0.406-0.662 0.879-0.844 0.479-0.185 0.889-0.175 1.229 0.031 0.337 0.199 0.573 0.475 0.709 0.828 0.136 0.353 0.146 0.716 0.031 1.09-0.113 0.38-0.41 0.663-0.89 0.848-0.473 0.182-0.878 0.174-1.214-0.025z" fill="#3d3839" data-fill-palette-color="primary"></path><path d="M101.72 18.765l-3.439-12.512 2.447-0.673 3.438 12.513c0.393 1.432 1.067 2.442 2.021 3.031 0.945 0.584 2.061 0.699 3.349 0.346v0c1.342-0.369 2.289-1.044 2.841-2.025 0.552-0.981 0.627-2.204 0.224-3.67v0c-0.384-1.397-1.1-2.385-2.147-2.963-1.047-0.578-2.242-0.683-3.584-0.314v0c-1.143 0.314-2.04 0.912-2.693 1.795v0l-0.675-2.457c0.849-0.818 1.851-1.386 3.007-1.704v0c1.92-0.528 3.685-0.343 5.294 0.555 1.6 0.893 2.682 2.365 3.245 4.416v0c0.592 2.154 0.394 4.007-0.593 5.559-0.989 1.545-2.482 2.592-4.478 3.141v0c-1.907 0.524-3.618 0.332-5.133-0.577-1.515-0.909-2.557-2.395-3.124-4.461z" fill="#3d3839" data-fill-palette-color="primary"></path><path d="M121.954 7.106l2.234 13.348-2.44 0.408-1.843-11.014-2.281 0.382 0.719-2.519zM118.932 4.746v0c-0.291-0.27-0.468-0.591-0.53-0.964-0.062-0.373 0.001-0.731 0.189-1.074 0.188-0.35 0.531-0.567 1.031-0.65 0.507-0.085 0.906 0.008 1.197 0.277 0.29 0.263 0.466 0.581 0.529 0.954 0.062 0.373-0.001 0.731-0.189 1.074-0.188 0.35-0.535 0.567-1.042 0.652-0.5 0.084-0.895-0.006-1.185-0.269z" fill="#3d3839" data-fill-palette-color="primary"></path><path d="M128.465 14.567v0l-1.376-14.324 2.526-0.243 1.376 14.324c0.064 0.668 0.195 1.207 0.392 1.619 0.204 0.404 0.481 0.678 0.832 0.823 0.358 0.145 0.696 0.231 1.015 0.258 0.325 0.026 0.751 0.014 1.276-0.037v0l0.226 2.356c-2.096 0.201-3.62-0.057-4.57-0.777-0.945-0.727-1.51-2.06-1.697-3.999z" fill="#3d3839" data-fill-palette-color="primary"></path><path d="M140.877 5.629l0.428 13.526-2.472 0.079-0.354-11.162-2.311 0.073 1.049-2.4zM138.197 2.886v0c-0.253-0.306-0.385-0.648-0.396-1.027-0.012-0.378 0.098-0.724 0.331-1.039 0.233-0.322 0.602-0.49 1.109-0.506 0.514-0.016 0.897 0.129 1.149 0.435 0.252 0.299 0.384 0.638 0.396 1.016 0.012 0.378-0.098 0.724-0.331 1.038-0.233 0.322-0.606 0.491-1.119 0.507-0.507 0.016-0.886-0.125-1.139-0.424z" fill="#3d3839" data-fill-palette-color="primary"></path><path d="M147.705 8.159l-2.513-0.125 5.298-4.786-0.133 2.674 3.796 0.189-0.117 2.363-3.797-0.189-0.288 5.807c-0.033 0.656 0.047 1.203 0.24 1.641 0.192 0.446 0.491 0.768 0.895 0.966 0.405 0.199 0.791 0.336 1.159 0.412 0.361 0.075 0.812 0.126 1.354 0.153v0l-0.118 2.363c-2.16-0.107-3.733-0.6-4.718-1.478-0.993-0.878-1.441-2.273-1.347-4.183v0z" fill="#3d3839" data-fill-palette-color="primary"></path><path d="M157.541 13.487l1.004-6.886 2.447 0.356-1.021 7.004c-0.219 1.504-0.139 2.587 0.241 3.248 0.379 0.668 1.19 1.093 2.433 1.274v0l2.934 0.428 1.611-11.05 2.458 0.358-1.855 12.724c-0.339 2.324-1.205 3.986-2.598 4.988-1.387 1.002-3.383 1.314-5.99 0.934v0l-2.013-0.293 0.341-2.342 1.759 0.257c3.404 0.496 5.387-0.582 5.946-3.234v0l-2.341-0.342c-2.437-0.355-4.034-1.024-4.793-2.007-0.758-0.983-0.946-2.789-0.563-5.417z" fill="#3d3839" data-fill-palette-color="primary"></path><path d="M185.77 13.053l-4.21 12.388-2.514-0.854 4.175-12.287c0.712-2.095 1.832-3.539 3.36-4.331 1.535-0.79 3.235-0.868 5.101-0.235v0c1.994 0.677 3.344 1.773 4.05 3.288 0.709 1.507 0.764 3.143 0.165 4.907v0c-0.374 1.102-0.9 1.994-1.576 2.676-0.679 0.689-1.431 1.138-2.256 1.348-0.834 0.214-1.67 0.3-2.507 0.256-0.835-0.05-1.671-0.217-2.51-0.502v0l-1.997-0.679 0.796-2.341 2.291 0.778c1.196 0.406 2.259 0.364 3.187-0.127 0.928-0.491 1.576-1.278 1.943-2.359v0c0.363-1.068 0.347-2.053-0.047-2.956-0.403-0.898-1.19-1.546-2.359-1.944v0c-1.142-0.388-2.169-0.307-3.079 0.243-0.913 0.557-1.584 1.467-2.013 2.731z" fill="#3d3839" data-fill-palette-color="primary"></path><path d="M196.468 31.202l-2.238-1.053 3.277-6.966c0.92-1.957 1.922-3.139 3.004-3.545v0c0.531-0.208 1.096-0.285 1.694-0.232 0.598 0.053 1.096 0.152 1.492 0.299 0.403 0.15 0.934 0.38 1.593 0.69v0l2.247 1.057-1.007 2.141-2.703-1.271c-0.342-0.161-0.612-0.276-0.808-0.344-0.193-0.075-0.44-0.12-0.741-0.136-0.307-0.018-0.606 0.039-0.896 0.17v0c-0.514 0.255-1.06 0.996-1.637 2.224v0z" fill="#3d3839" data-fill-palette-color="primary"></path><path d="M216.856 26.572v0c2.68 1.75 3.377 3.708 2.09 5.874v0c-1.604 2.7-4.176 2.999-7.717 0.895v0l-0.994-0.591 1.11-1.868 1.159 0.689c1.086 0.645 1.936 0.926 2.551 0.842 0.62-0.08 1.162-0.509 1.625-1.288v0c0.295-0.497 0.33-0.983 0.105-1.457-0.219-0.47-0.62-0.879-1.202-1.225v0c-1.148-0.682-2.29-0.813-3.428-0.393-1.138 0.42-2.042 1.195-2.713 2.324v0c-0.711 1.197-0.934 2.376-0.669 3.538 0.265 1.162 0.962 2.078 2.09 2.749v0c1.019 0.605 2 0.847 2.943 0.727v0l0.602 2.3c-1.647 0.242-3.231-0.089-4.753-0.993v0c-1.841-1.094-2.99-2.507-3.447-4.239-0.453-1.739-0.171-3.464 0.846-5.177v0c1.134-1.909 2.591-3.131 4.37-3.668 1.78-0.537 3.591-0.217 5.432 0.961z" fill="#3d3839" data-fill-palette-color="primary"></path><path d="M226.524 47.619l10.642-13.738 2.006 1.554-12.091 15.608-5.239-4.058c-1.619-1.255-2.534-2.789-2.744-4.605-0.21-1.815 0.295-3.51 1.514-5.084v0c1.198-1.546 2.725-2.44 4.582-2.681 1.863-0.237 3.513 0.203 4.952 1.318v0c0.925 0.717 1.616 1.609 2.072 2.675v0l-1.56 2.014c-0.33-1.113-0.985-2.05-1.968-2.81v0c-0.892-0.691-1.901-0.944-3.027-0.761-1.127 0.184-2.105 0.812-2.935 1.884v0c-0.839 1.083-1.219 2.18-1.139 3.289 0.08 1.109 0.647 2.072 1.702 2.89v0z" fill="#3d3839" data-fill-palette-color="primary"></path><path d="M242.104 46.67l-9.329 9.804-1.792-1.705 7.698-8.09-1.676-1.594 2.446-0.939zM242.175 42.836v0c0.041-0.395 0.191-0.729 0.452-1.003 0.261-0.274 0.585-0.439 0.972-0.494 0.392-0.06 0.772 0.084 1.14 0.434 0.372 0.354 0.538 0.729 0.497 1.123-0.036 0.39-0.184 0.722-0.445 0.996-0.261 0.274-0.585 0.439-0.972 0.494-0.392 0.06-0.775-0.087-1.147-0.441-0.367-0.349-0.533-0.719-0.497-1.109z" fill="#3d3839" data-fill-palette-color="primary"></path><path d="M244.305 64.89v0l-0.141 2.373c-1.645-0.286-3.018-1.057-4.119-2.313v0c-1.378-1.573-1.976-3.274-1.795-5.103 0.182-1.829 1.029-3.407 2.544-4.734v0c1.487-1.303 3.179-1.907 5.074-1.812 1.9 0.1 3.495 0.886 4.783 2.357v0c1.101 1.256 1.682 2.721 1.743 4.395v0l-2.366-0.134c-0.071-0.991-0.459-1.889-1.164-2.694v0c-0.856-0.977-1.858-1.471-3.006-1.481-1.137-0.009-2.238 0.452-3.301 1.383-1.058 0.927-1.659 1.957-1.805 3.09-0.141 1.139 0.216 2.197 1.073 3.174v0c0.72 0.821 1.546 1.321 2.48 1.499z" fill="#3d3839" data-fill-palette-color="primary"></path><path d="M254.796 65.171l-1.459-2.05 7.039 1.194-2.181 1.552 2.204 3.096-1.928 1.372-2.204-3.096-4.737 3.371c-0.535 0.381-0.915 0.783-1.139 1.205-0.231 0.427-0.299 0.861-0.204 1.302 0.095 0.441 0.226 0.829 0.395 1.164 0.165 0.33 0.404 0.716 0.718 1.158v0l-1.927 1.372c-1.254-1.762-1.842-3.302-1.764-4.62 0.074-1.323 0.891-2.54 2.45-3.649v0z" fill="#3d3839" data-fill-palette-color="primary"></path><path d="M264.801 76.044l-11.557 7.042-1.286-2.112 9.536-5.811-1.203-1.975 2.605-0.271zM265.867 72.361v0c0.142-0.371 0.374-0.654 0.698-0.851 0.323-0.197 0.679-0.271 1.067-0.224 0.394 0.044 0.724 0.282 0.987 0.715 0.267 0.439 0.33 0.844 0.188 1.214-0.136 0.367-0.365 0.649-0.688 0.846-0.323 0.197-0.679 0.271-1.067 0.223-0.394-0.044-0.725-0.285-0.993-0.724-0.264-0.433-0.328-0.833-0.192-1.199z" fill="#3d3839" data-fill-palette-color="primary"></path><path d="M266.682 83.478v0c1.81 0.588 3.143 1.773 3.998 3.556v0c0.414 0.862 0.634 1.75 0.661 2.664 0.036 0.917-0.099 1.797-0.406 2.641-0.301 0.841-0.76 1.608-1.378 2.301-0.618 0.692-1.367 1.25-2.249 1.673v0c-0.882 0.423-1.784 0.662-2.708 0.718-0.92 0.062-1.801-0.05-2.643-0.335-0.848-0.282-1.62-0.727-2.315-1.335-0.693-0.602-1.251-1.343-1.674-2.225v0c-0.432-0.901-0.665-1.807-0.698-2.717-0.033-0.91 0.105-1.785 0.416-2.623 0.304-0.835 0.766-1.595 1.387-2.281 0.624-0.68 1.377-1.231 2.258-1.654v0c1.795-0.862 3.579-0.989 5.351-0.383zM268.538 88.062v0c-0.571-1.19-1.419-1.959-2.544-2.306-1.121-0.341-2.31-0.21-3.565 0.393-1.255 0.602-2.1 1.447-2.536 2.535-0.433 1.094-0.363 2.237 0.208 3.428v0c0.578 1.203 1.429 1.971 2.554 2.301 1.134 0.334 2.319 0.205 3.555-0.388 1.236-0.593 2.078-1.437 2.526-2.531 0.445-1.085 0.379-2.229-0.198-3.432z" fill="#3d3839" data-fill-palette-color="primary"></path><path d="M262.434 102.818l12.827-4.316 1.557 4.627c0.665 1.975 0.847 3.492 0.547 4.549v0c-0.257 0.937-0.713 1.629-1.368 2.076-0.649 0.444-1.562 0.864-2.739 1.261v0l-7.246 2.437-0.789-2.344 7.215-2.427c0.325-0.109 0.592-0.21 0.802-0.304 0.216-0.095 0.483-0.253 0.801-0.473 0.309-0.224 0.542-0.472 0.699-0.743 0.157-0.271 0.258-0.621 0.302-1.051 0.042-0.436-0.027-0.921-0.208-1.455v0l-1.024-3.044-10.584 3.561z" fill="#3d3839" data-fill-palette-color="primary"></path><path d="M5.356 148c0-1.267 1.027-2.294 2.294-2.294 1.267 0 2.294 1.027 2.295 2.294 0 1.267-1.027 2.294-2.295 2.294-1.267 0-2.294-1.027-2.294-2.294z" fill="#3d3839" data-fill-palette-color="primary"></path><path d="M274.902 148c0-1.267 1.027-2.294 2.294-2.294 1.267 0 2.294 1.027 2.294 2.294 0 1.267-1.027 2.294-2.294 2.294-1.267 0-2.294-1.027-2.294-2.294z" fill="#3d3839" data-fill-palette-color="primary"></path></g><g id="text-1"><path d="M11.16 185.083v0l14.021-4.009 0.709 2.481-14.02 4.009c-0.666 0.19-1.183 0.42-1.552 0.688-0.367 0.276-0.589 0.603-0.666 0.981-0.084 0.38-0.109 0.736-0.073 1.068 0.033 0.325 0.124 0.744 0.271 1.259v0l-2.306 0.659c-0.587-2.052-0.608-3.62-0.064-4.703 0.546-1.077 1.773-1.888 3.68-2.433z" fill="#3d3839" data-fill-palette-color="primary"></path><path d="M81.42 263.157v0c1.815-0.652 3.62-0.531 5.416 0.362v0c0.869 0.432 1.601 1.004 2.197 1.715 0.595 0.711 1.033 1.498 1.312 2.363 0.286 0.868 0.396 1.768 0.331 2.699-0.062 0.942-0.314 1.857-0.756 2.746v0c-0.442 0.888-1.012 1.641-1.709 2.258-0.707 0.621-1.487 1.082-2.339 1.384-0.852 0.302-1.744 0.428-2.676 0.379-0.932-0.049-1.842-0.295-2.731-0.737v0c-0.907-0.451-1.659-1.032-2.254-1.743-0.595-0.711-1.029-1.497-1.302-2.358-0.273-0.861-0.372-1.76-0.298-2.695 0.065-0.932 0.319-1.843 0.761-2.731v0c0.9-1.809 2.249-3.023 4.048-3.642zM85.768 265.667v0c-1.195-0.595-2.352-0.68-3.472-0.257-1.113 0.427-1.985 1.273-2.614 2.539-0.629 1.265-0.777 2.468-0.443 3.606 0.338 1.148 1.104 2.02 2.299 2.614v0c1.208 0.601 2.367 0.683 3.477 0.247 1.116-0.433 1.985-1.273 2.605-2.519 0.62-1.246 0.766-2.445 0.438-3.597-0.318-1.155-1.081-2.033-2.29-2.633z" fill="#3d3839" data-fill-palette-color="primary"></path><path d="M197.177 270.581v0l0.992 2.371c-0.877-0.229-1.8-0.14-2.768 0.265v0c-0.823 0.345-1.397 0.775-1.723 1.29-0.319 0.513-0.353 1.069-0.103 1.668v0c0.488 1.165 1.591 1.388 3.31 0.669v0l3.486-1.46-2.113-5.047c-0.89-2.127-2.372-2.756-4.446-1.887v0l-4.227 1.769-0.926-2.212 4.355-1.823c1.705-0.714 3.192-0.841 4.46-0.382 1.268 0.46 2.234 1.483 2.899 3.07v0l3.245 7.753-5.886 2.464c-1.495 0.626-2.82 0.786-3.977 0.481-1.161-0.296-2.01-1.085-2.547-2.369-0.537-1.284-0.479-2.457 0.174-3.521 0.65-1.054 1.679-1.875 3.088-2.465v0c0.79-0.331 1.692-0.542 2.707-0.634z" fill="#3d3839" data-fill-palette-color="primary"></path><path d="M275.288 197.701l-13.005-4.389 1.582-4.687c0.676-2.002 1.457-3.335 2.345-4v0c0.783-0.602 1.579-0.883 2.386-0.844 0.801 0.037 1.797 0.256 2.988 0.658v0l7.344 2.479-0.804 2.384-7.315-2.469c-0.325-0.11-0.605-0.193-0.842-0.25-0.23-0.055-0.539-0.088-0.927-0.099-0.388-0.01-0.73 0.044-1.027 0.162-0.289 0.121-0.584 0.345-0.882 0.674-0.304 0.319-0.547 0.75-0.73 1.291v0l-1.041 3.084 10.733 3.622z" fill="#3d3839" data-fill-palette-color="primary"></path></g></svg></g></svg></g></svg></g><g></g></svg></g><defs></defs></svg><rect width="279.72" height="279.72" fill="none" stroke="none" visibility="hidden"></rect></g></svg></g></svg>